<mxfile host="app.diagrams.net" modified="2024-03-27T22:57:31.750Z" agent="Mozilla/5.0 (Windows NT 10.0; Win64; x64) AppleWebKit/537.36 (KHTML, like Gecko) Chrome/123.0.0.0 Safari/537.36" etag="T8K5jM6kfPJHeBiC16z1" version="24.1.0" type="google">
  <diagram name="Page-1" id="1U0NYOvX_yterfBGb20F">
    <mxGraphModel grid="1" page="1" gridSize="10" guides="1" tooltips="1" connect="1" arrows="1" fold="1" pageScale="1" pageWidth="827" pageHeight="1169" math="0" shadow="0">
      <root>
        <mxCell id="0" />
        <mxCell id="1" parent="0" />
        <mxCell id="n7FsxMHbA5SgvqIJJtXP-2" value="Client" style="shape=umlLifeline;perimeter=lifelinePerimeter;whiteSpace=wrap;container=1;dropTarget=0;collapsible=0;recursiveResize=0;outlineConnect=0;portConstraint=eastwest;newEdgeStyle={&quot;edgeStyle&quot;:&quot;elbowEdgeStyle&quot;,&quot;elbow&quot;:&quot;vertical&quot;,&quot;curved&quot;:0,&quot;rounded&quot;:0};size=65;" vertex="1" parent="1">
          <mxGeometry x="20" y="20" width="150" height="734" as="geometry" />
        </mxCell>
        <mxCell id="n7FsxMHbA5SgvqIJJtXP-3" value="Application" style="shape=umlLifeline;perimeter=lifelinePerimeter;whiteSpace=wrap;container=1;dropTarget=0;collapsible=0;recursiveResize=0;outlineConnect=0;portConstraint=eastwest;newEdgeStyle={&quot;edgeStyle&quot;:&quot;elbowEdgeStyle&quot;,&quot;elbow&quot;:&quot;vertical&quot;,&quot;curved&quot;:0,&quot;rounded&quot;:0};size=65;" vertex="1" parent="1">
          <mxGeometry x="305" y="20" width="150" height="734" as="geometry" />
        </mxCell>
        <mxCell id="n7FsxMHbA5SgvqIJJtXP-4" value="Serveur" style="shape=umlLifeline;perimeter=lifelinePerimeter;whiteSpace=wrap;container=1;dropTarget=0;collapsible=0;recursiveResize=0;outlineConnect=0;portConstraint=eastwest;newEdgeStyle={&quot;edgeStyle&quot;:&quot;elbowEdgeStyle&quot;,&quot;elbow&quot;:&quot;vertical&quot;,&quot;curved&quot;:0,&quot;rounded&quot;:0};size=65;" vertex="1" parent="1">
          <mxGeometry x="551" y="20" width="150" height="734" as="geometry" />
        </mxCell>
        <mxCell id="n7FsxMHbA5SgvqIJJtXP-5" value="Livreur" style="shape=umlLifeline;perimeter=lifelinePerimeter;whiteSpace=wrap;container=1;dropTarget=0;collapsible=0;recursiveResize=0;outlineConnect=0;portConstraint=eastwest;newEdgeStyle={&quot;edgeStyle&quot;:&quot;elbowEdgeStyle&quot;,&quot;elbow&quot;:&quot;vertical&quot;,&quot;curved&quot;:0,&quot;rounded&quot;:0};size=65;" vertex="1" parent="1">
          <mxGeometry x="782" y="20" width="150" height="734" as="geometry" />
        </mxCell>
        <mxCell id="n7FsxMHbA5SgvqIJJtXP-6" value="QG" style="shape=umlLifeline;perimeter=lifelinePerimeter;whiteSpace=wrap;container=1;dropTarget=0;collapsible=0;recursiveResize=0;outlineConnect=0;portConstraint=eastwest;newEdgeStyle={&quot;edgeStyle&quot;:&quot;elbowEdgeStyle&quot;,&quot;elbow&quot;:&quot;vertical&quot;,&quot;curved&quot;:0,&quot;rounded&quot;:0};size=65;" vertex="1" parent="1">
          <mxGeometry x="982" y="20" width="150" height="734" as="geometry" />
        </mxCell>
        <mxCell id="n7FsxMHbA5SgvqIJJtXP-7" value="alt" style="shape=umlFrame;dashed=1;pointerEvents=0;dropTarget=0;strokeColor=#B3B3B3;height=20;width=30" vertex="1" parent="1">
          <mxGeometry x="85" y="349" width="782" height="300" as="geometry" />
        </mxCell>
        <mxCell id="n7FsxMHbA5SgvqIJJtXP-8" value="[Livreur disponible]" style="text;strokeColor=none;fillColor=none;align=center;verticalAlign=middle;whiteSpace=wrap;" vertex="1" parent="n7FsxMHbA5SgvqIJJtXP-7">
          <mxGeometry x="30" width="752" height="20" as="geometry" />
        </mxCell>
        <mxCell id="n7FsxMHbA5SgvqIJJtXP-9" value="[Livreur indisponible]" style="shape=line;dashed=1;whiteSpace=wrap;verticalAlign=top;labelPosition=center;verticalLabelPosition=middle;align=center;strokeColor=#B3B3B3;" vertex="1" parent="n7FsxMHbA5SgvqIJJtXP-7">
          <mxGeometry y="103" width="782" height="4" as="geometry" />
        </mxCell>
        <mxCell id="n7FsxMHbA5SgvqIJJtXP-10" value="loop" style="shape=umlFrame;dashed=1;pointerEvents=0;dropTarget=0;strokeColor=#B3B3B3;height=20;width=40" vertex="1" parent="1">
          <mxGeometry x="75" y="251" width="802" height="408" as="geometry" />
        </mxCell>
        <mxCell id="n7FsxMHbA5SgvqIJJtXP-11" value="[Attente Livreur]" style="text;strokeColor=none;fillColor=none;align=center;verticalAlign=middle;whiteSpace=wrap;" vertex="1" parent="n7FsxMHbA5SgvqIJJtXP-10">
          <mxGeometry x="40" width="762" height="20" as="geometry" />
        </mxCell>
        <mxCell id="n7FsxMHbA5SgvqIJJtXP-12" value="Passer une commande" style="verticalAlign=bottom;endArrow=block;edgeStyle=elbowEdgeStyle;elbow=vertical;curved=0;rounded=0;" edge="1" parent="1" source="n7FsxMHbA5SgvqIJJtXP-2" target="n7FsxMHbA5SgvqIJJtXP-3">
          <mxGeometry relative="1" as="geometry">
            <Array as="points">
              <mxPoint x="248" y="127" />
            </Array>
          </mxGeometry>
        </mxCell>
        <mxCell id="n7FsxMHbA5SgvqIJJtXP-13" value="Enregistrer la commande" style="verticalAlign=bottom;endArrow=block;edgeStyle=elbowEdgeStyle;elbow=vertical;curved=0;rounded=0;" edge="1" parent="1" source="n7FsxMHbA5SgvqIJJtXP-3" target="n7FsxMHbA5SgvqIJJtXP-4">
          <mxGeometry relative="1" as="geometry">
            <Array as="points">
              <mxPoint x="513" y="179" />
            </Array>
          </mxGeometry>
        </mxCell>
        <mxCell id="n7FsxMHbA5SgvqIJJtXP-14" value="PrÃ©parer les plats et desserts du jour" style="verticalAlign=bottom;endArrow=block;edgeStyle=elbowEdgeStyle;elbow=vertical;curved=0;rounded=0;" edge="1" parent="1" source="n7FsxMHbA5SgvqIJJtXP-4" target="n7FsxMHbA5SgvqIJJtXP-6">
          <mxGeometry relative="1" as="geometry">
            <Array as="points">
              <mxPoint x="852" y="231" />
            </Array>
          </mxGeometry>
        </mxCell>
        <mxCell id="n7FsxMHbA5SgvqIJJtXP-15" value="Assigner la commande" style="verticalAlign=bottom;endArrow=block;edgeStyle=elbowEdgeStyle;elbow=vertical;curved=0;rounded=0;" edge="1" parent="1" source="n7FsxMHbA5SgvqIJJtXP-4" target="n7FsxMHbA5SgvqIJJtXP-5">
          <mxGeometry relative="1" as="geometry">
            <Array as="points">
              <mxPoint x="752" y="329" />
            </Array>
          </mxGeometry>
        </mxCell>
        <mxCell id="n7FsxMHbA5SgvqIJJtXP-16" value="Livrer la commande" style="verticalAlign=bottom;endArrow=block;edgeStyle=elbowEdgeStyle;elbow=vertical;curved=0;rounded=0;" edge="1" parent="1" source="n7FsxMHbA5SgvqIJJtXP-5" target="n7FsxMHbA5SgvqIJJtXP-2">
          <mxGeometry relative="1" as="geometry">
            <Array as="points">
              <mxPoint x="486" y="427" />
            </Array>
          </mxGeometry>
        </mxCell>
        <mxCell id="n7FsxMHbA5SgvqIJJtXP-17" value="Voir le statut de la commande" style="verticalAlign=bottom;endArrow=block;edgeStyle=elbowEdgeStyle;elbow=vertical;curved=0;rounded=0;" edge="1" parent="1" source="n7FsxMHbA5SgvqIJJtXP-2" target="n7FsxMHbA5SgvqIJJtXP-3">
          <mxGeometry relative="1" as="geometry">
            <Array as="points">
              <mxPoint x="248" y="525" />
            </Array>
          </mxGeometry>
        </mxCell>
        <mxCell id="n7FsxMHbA5SgvqIJJtXP-18" value="Afficher &quot;En attente de livreur&quot;" style="verticalAlign=bottom;endArrow=block;edgeStyle=elbowEdgeStyle;elbow=vertical;curved=0;rounded=0;" edge="1" parent="1" source="n7FsxMHbA5SgvqIJJtXP-3" target="n7FsxMHbA5SgvqIJJtXP-2">
          <mxGeometry relative="1" as="geometry">
            <Array as="points">
              <mxPoint x="248" y="577" />
            </Array>
          </mxGeometry>
        </mxCell>
        <mxCell id="n7FsxMHbA5SgvqIJJtXP-19" value="Attendre" style="verticalAlign=bottom;endArrow=block;edgeStyle=elbowEdgeStyle;elbow=vertical;curved=0;rounded=0;" edge="1" parent="1" source="n7FsxMHbA5SgvqIJJtXP-4" target="n7FsxMHbA5SgvqIJJtXP-5">
          <mxGeometry relative="1" as="geometry">
            <Array as="points">
              <mxPoint x="752" y="629" />
            </Array>
          </mxGeometry>
        </mxCell>
      </root>
    </mxGraphModel>
  </diagram>
</mxfile>
